{
  "asset": {
    "version": "2.0",
    "generator": "THREE.GLTFExporter r179"
  },
  "scenes": [
    {
      "name": "Scene",
      "nodes": [
        0,
        10
      ]
    }
  ],
  "scene": 0,
  "nodes": [
    {
      "name": "newring.glb",
      "children": [
        1,
        3,
        4,
        6,
        8
      ]
    },
    {
      "matrix": [
        -8.88178539034762e-15,
        1.665334536937794e-16,
        -1.0000001343588565,
        0,
        -1.6653349844425938e-16,
        -1.0000002687176954,
        -1.665334760690164e-16,
        0,
        -1.0000001343588565,
        1.665334760690164e-16,
        8.992807707726966e-15,
        0,
        3.0557403564453125,
        3.0557403564453125,
        0,
        1
      ],
      "name": "Sketchfab_model",
      "extras": {
        "name": "Sketchfab_model"
      },
      "children": [
        2
      ]
    },
    {
      "name": "modelobjcleanergles",
      "extras": {
        "name": "model.obj.cleaner.gles"
      }
    },
    {
      "matrix": [
        -0.07789619015943028,
        -0.10975149133779401,
        -0.9909021760050942,
        0,
        -0.6236039698175917,
        0.7808422849447502,
        -0.037463071177181194,
        0,
        0.777849930530066,
        0.615012279947871,
        -0.12926610327839078,
        0,
        68.72237396240234,
        56.82646179199219,
        -11.188713073730469,
        1
      ],
      "name": "Camera",
      "extras": {
        "name": "Camera"
      },
      "camera": 0
    },
    {
      "matrix": [
        9.39546622026758,
        0.22396549263908183,
        -0.99314074160064,
        0,
        -1.001407872780092,
        0.3714302107204381,
        -9.389914138726931,
        0,
        -0.18349725734048125,
        9.4405055321045,
        0.39300088400301314,
        0,
        1.318273901939392,
        49.60284423828125,
        0.9144625663757324,
        1
      ],
      "name": "Area",
      "extras": {
        "name": "Area"
      },
      "children": [
        5
      ],
      "extensions": {
        "KHR_lights_punctual": {
          "light": 0
        }
      }
    },
    {
      "matrix": [
        1,
        0,
        0,
        0,
        0,
        1,
        0,
        0,
        0,
        0,
        1,
        0,
        0,
        0,
        -1,
        1
      ]
    },
    {
      "matrix": [
        8.760353501723337,
        2.4828503231131585,
        2.5303987305062394,
        0,
        2.607881357214623,
        -9.082766601790308,
        -0.11650835268932677,
        0,
        2.40133711058484,
        0.8062709493430873,
        -9.1046568174712,
        0,
        5.14786434173584,
        -1.7796473503112793,
        -52.72877502441406,
        1
      ],
      "name": "Area001",
      "extras": {
        "name": "Area.001"
      },
      "children": [
        7
      ],
      "extensions": {
        "KHR_lights_punctual": {
          "light": 1
        }
      }
    },
    {
      "matrix": [
        1,
        0,
        0,
        0,
        0,
        1,
        0,
        0,
        0,
        0,
        1,
        0,
        0,
        0,
        -1,
        1
      ]
    },
    {
      "matrix": [
        8.279596013795484,
        0.765701242727617,
        4.491465977891784,
        0,
        -1.1990955056247583,
        9.353835244320647,
        0.6157862736351815,
        0,
        -4.395649075048046,
        -1.1093802341164896,
        8.29209273031465,
        0,
        -5.881309509277344,
        7.075671195983887,
        45.31734085083008,
        1
      ],
      "name": "Area002",
      "extras": {
        "name": "Area.002"
      },
      "children": [
        9
      ],
      "extensions": {
        "KHR_lights_punctual": {
          "light": 2
        }
      }
    },
    {
      "matrix": [
        1,
        0,
        0,
        0,
        0,
        1,
        0,
        0,
        0,
        0,
        1,
        0,
        0,
        0,
        -1,
        1
      ]
    },
    {
      "name": "import.glb",
      "children": [
        11,
        14,
        15,
        17,
        19
      ]
    },
    {
      "matrix": [
        -1.3435885648505064e-7,
        1.6653347606901789e-16,
        -1.0000001343588565,
        0,
        -1.6653347606901789e-16,
        -1.000000268717713,
        -1.6653347606901789e-16,
        0,
        -1.0000001343588565,
        1.6653347606901789e-16,
        -1.3435885648505064e-7,
        0,
        3.0557403564453125,
        3.0557403564453125,
        0,
        1
      ],
      "name": "Sketchfab_model",
      "extras": {
        "name": "Sketchfab_model"
      },
      "children": [
        12
      ]
    },
    {
      "name": "modelobjcleanergles",
      "extras": {
        "name": "model.obj.cleaner.gles"
      },
      "children": [
        13
      ]
    },
    {
      "name": "Object_2",
      "extras": {
        "name": "Object_2"
      },
      "mesh": 0
    },
    {
      "matrix": [
        -0.07789610578591111,
        -0.10975145594605173,
        -0.9909021412243932,
        0,
        -0.6236039344258533,
        0.780842296445234,
        -0.03746317680225353,
        0,
        0.7778499653107671,
        0.6150121743227874,
        -0.1292660324538364,
        0,
        68.72237396240234,
        56.82646179199219,
        -11.188713073730469,
        1
      ],
      "name": "Camera",
      "extras": {
        "name": "Camera"
      },
      "camera": 1
    },
    {
      "matrix": [
        9.395466220287647,
        0.2239655436266006,
        -0.9931407297621899,
        0,
        -1.001407821792576,
        0.3714302160058913,
        -9.389914141331566,
        0,
        -0.18349724550203167,
        9.440505529499871,
        0.3930008895527599,
        0,
        1.318273901939392,
        49.60284423828125,
        0.9144625663757324,
        1
      ],
      "name": "Area",
      "extras": {
        "name": "Area"
      },
      "children": [
        16
      ],
      "extensions": {
        "KHR_lights_punctual": {
          "light": 3
        }
      }
    },
    {
      "matrix": [
        1,
        0,
        0,
        0,
        0,
        1,
        0,
        0,
        0,
        0,
        1,
        0,
        0,
        0,
        -1,
        1
      ]
    },
    {
      "matrix": [
        8.760353455203402,
        2.4828504035624532,
        2.5303988126839205,
        0,
        2.607881276765323,
        -9.082766625206016,
        -0.11650836367533837,
        0,
        2.401337028407154,
        0.8062709383570759,
        -9.104656840575434,
        0,
        5.14786434173584,
        -1.7796473503112793,
        -52.72877502441406,
        1
      ],
      "name": "Area001",
      "extras": {
        "name": "Area.001"
      },
      "children": [
        18
      ],
      "extensions": {
        "KHR_lights_punctual": {
          "light": 4
        }
      }
    },
    {
      "matrix": [
        1,
        0,
        0,
        0,
        0,
        1,
        0,
        0,
        0,
        0,
        1,
        0,
        0,
        0,
        -1,
        1
      ]
    },
    {
      "matrix": [
        8.27959601424337,
        0.7657012474640016,
        4.491465976210261,
        0,
        -1.1990955008883744,
        9.353835244337512,
        0.6157862825728211,
        0,
        -4.395649076729567,
        -1.1093802251788496,
        8.292092730593065,
        0,
        -5.881309509277344,
        7.075671195983887,
        45.31734085083008,
        1
      ],
      "name": "Area002",
      "extras": {
        "name": "Area.002"
      },
      "children": [
        20
      ],
      "extensions": {
        "KHR_lights_punctual": {
          "light": 5
        }
      }
    },
    {
      "matrix": [
        1,
        0,
        0,
        0,
        0,
        1,
        0,
        0,
        0,
        0,
        1,
        0,
        0,
        0,
        -1,
        1
      ]
    }
  ],
  "cameras": [
    {
      "type": "perspective",
      "perspective": {
        "aspectRatio": 1.71960569550931,
        "yfov": 0.3033977782755429,
        "zfar": 1000,
        "znear": 0.10000000149011612
      },
      "name": "PerspectiveCamera"
    },
    {
      "type": "perspective",
      "perspective": {
        "aspectRatio": 1.71960569550931,
        "yfov": 0.3033977782755429,
        "zfar": 1000,
        "znear": 0.10000000149011612
      },
      "name": "PerspectiveCamera"
    }
  ],
  "extensions": {
    "KHR_lights_punctual": {
      "lights": [
        {
          "name": "Area",
          "color": [
            1,
            1,
            1
          ],
          "intensity": 1027.300048828125,
          "type": "directional"
        },
        {
          "name": "Area001",
          "color": [
            1,
            1,
            1
          ],
          "intensity": 1027.300048828125,
          "type": "directional"
        },
        {
          "name": "Area002",
          "color": [
            1,
            1,
            1
          ],
          "intensity": 1027.300048828125,
          "type": "directional"
        },
        {
          "name": "Area",
          "color": [
            1,
            1,
            1
          ],
          "intensity": 1027.300048828125,
          "type": "directional"
        },
        {
          "name": "Area001",
          "color": [
            1,
            1,
            1
          ],
          "intensity": 1028.7,
          "type": "directional"
        },
        {
          "name": "Area002",
          "color": [
            1,
            1,
            1
          ],
          "intensity": 1028.46,
          "type": "directional"
        }
      ]
    }
  },
  "bufferViews": [
    {
      "buffer": 0,
      "byteOffset": 0,
      "byteLength": 7560,
      "target": 34962,
      "byteStride": 12
    },
    {
      "buffer": 0,
      "byteOffset": 7560,
      "byteLength": 7560,
      "target": 34962,
      "byteStride": 12
    },
    {
      "buffer": 0,
      "byteOffset": 15120,
      "byteLength": 5040,
      "target": 34962,
      "byteStride": 8
    },
    {
      "buffer": 0,
      "byteOffset": 20160,
      "byteLength": 6336,
      "target": 34963
    }
  ],
  "buffers": [
    {
      "byteLength": 26496,
      "uri": "data:application/octet-stream;base64,"
    }
  ],
  "accessors": [
    {
      "bufferView": 0,
      "componentType": 5126,
      "count": 630,
      "max": [
        12.680000305175781,
        12.680000305175781,
        6.055699825286865
      ],
      "min": [
        -12.680000305175781,
        -12.680000305175781,
        0.05570000037550926
      ],
      "type": "VEC3"
    },
    {
      "bufferView": 1,
      "componentType": 5126,
      "count": 630,
      "max": [
        0.9999995231628418,
        0.9999995827674866,
        0.9998518824577332
      ],
      "min": [
        -0.9999995231628418,
        -0.9999995231628418,
        -0.9997920989990234
      ],
      "type": "VEC3"
    },
    {
      "bufferView": 2,
      "componentType": 5126,
      "count": 630,
      "max": [
        1,
        0.9998000264167786
      ],
      "min": [
        0,
        0.000299990177154541
      ],
      "type": "VEC2"
    },
    {
      "bufferView": 3,
      "componentType": 5123,
      "count": 3168,
      "max": [
        629
      ],
      "min": [
        0
      ],
      "type": "SCALAR"
    }
  ],
  "materials": [
    {
      "pbrMetallicRoughness": {
        "metallicFactor": 1,
        "roughnessFactor": 1,
        "metallicRoughnessTexture": {
          "index": 0,
          "texCoord": 0
        },
        "baseColorTexture": {
          "index": 1,
          "texCoord": 0
        }
      },
      "name": "08___Default"
    }
  ],
  "textures": [
    {
      "sampler": 0,
      "source": 0,
      "name": "Image_1"
    },
    {
      "sampler": 1,
      "source": 1,
      "name": "Image_0"
    }
  ],
  "samplers": [
    {
      "magFilter": 9729,
      "minFilter": 9987,
      "wrapS": 10497,
      "wrapT": 10497
    },
    {
      "magFilter": 9729,
      "minFilter": 9987,
      "wrapS": 10497,
      "wrapT": 10497
    }
  ],
  "images": [
    {
      "mimeType": "image/png",
      "uri": "data:image/png;base64,"
    },
    {
      "mimeType": "image/jpeg",
      "uri": "data:image/jpeg;base64,"
    }
  ],
  "meshes": [
    {
      "primitives": [
        {
          "mode": 4,
          "attributes": {
            "POSITION": 0,
            "NORMAL": 1,
            "TEXCOORD_0": 2
          },
          "indices": 3,
          "material": 0
        }
      ]
    }
  ],
  "extensionsUsed": [
    "KHR_lights_punctual"
  ]
}